<?xml version="1.0" ?><svg style="enable-background:new 0 0 64 64;" version="1.1" viewBox="0 0 64 64" xml:space="preserve" xmlns="http://www.w3.org/2000/svg" xmlns:xlink="http://www.w3.org/1999/xlink"><style type="text/css">
	.st0{fill:#75C6A8;}
	.st1{fill:#57B5B5;}
	.st2{fill:#263047;}
	.st3{fill:#DB7158;}
	.st4{fill:none;stroke:#263047;stroke-width:0.5;stroke-linecap:round;stroke-miterlimit:10;}
	.st5{fill:none;stroke:#EA8B78;stroke-width:2;stroke-linecap:round;stroke-miterlimit:10;}
	.st6{fill:#E89715;}
	.st7{fill:none;stroke:#263047;stroke-linecap:round;stroke-miterlimit:10;}
	.st8{fill:none;stroke:#263047;stroke-width:0.5;stroke-linecap:round;stroke-linejoin:round;stroke-miterlimit:10;}
	.st9{fill:#456BA8;}
	.st10{fill:#9EC6B8;}
	.st11{fill:#C14F46;}
	.st12{fill:#BFD8D0;}
	.st13{fill:#E57417;}
	.st14{fill:none;stroke:#9EC6B8;stroke-width:0.75;stroke-linecap:round;stroke-linejoin:round;stroke-miterlimit:10;}
	.st15{fill:#FFFFFF;}
	.st16{fill:#D8EAE3;}
	.st17{fill:none;stroke:#DB7158;stroke-linecap:round;stroke-miterlimit:10;}
	.st18{fill:none;stroke:#BFD8D0;stroke-width:0.5;stroke-linecap:round;stroke-miterlimit:10;}
	.st19{fill:none;stroke:#263047;stroke-width:0.5;stroke-linecap:round;stroke-miterlimit:10;stroke-dasharray:1.0458,1.0458;}
	.st20{fill:#75C6A8;stroke:#75C6A8;stroke-width:0.25;stroke-linejoin:round;stroke-miterlimit:10;}
	.st21{fill:#EF8873;}
	.st22{fill:none;stroke:#263047;stroke-width:0.5;stroke-miterlimit:10;}
	.st23{fill:none;stroke:#263047;stroke-width:0.5;stroke-linecap:round;stroke-miterlimit:10;stroke-dasharray:1.8125,1.8125;}
	.st24{fill:none;stroke:#263047;stroke-linecap:round;stroke-miterlimit:10;stroke-dasharray:1.912,1.912;}
	.st25{fill:none;}
	.st26{fill:none;stroke:#EA8B78;stroke-linecap:round;stroke-miterlimit:10;}
	.st27{fill:none;stroke:#263047;stroke-width:3;stroke-miterlimit:10;}
	.st28{fill:none;stroke:#BFD8D0;stroke-miterlimit:10;}
	.st29{fill:none;stroke:#BFD8D0;stroke-width:0.5;stroke-miterlimit:10;}
	.st30{fill:none;stroke:#9EC6B8;stroke-width:0.5;stroke-miterlimit:10;}
	.st31{fill:none;stroke:#75C6A8;stroke-width:0.5;stroke-miterlimit:10;}
	.st32{fill:none;stroke:#F9F9F9;stroke-width:0.5;stroke-linecap:round;stroke-linejoin:round;stroke-miterlimit:10;}
	.st33{fill:none;stroke:#9EC6B8;stroke-width:0.5;stroke-linecap:round;stroke-linejoin:round;stroke-miterlimit:10;}
	.st34{fill:#EA8B78;}
	.st35{fill:none;stroke:#EA8B78;stroke-width:0.75;stroke-linecap:round;stroke-miterlimit:10;}
</style><g id="Layer_1"/><g id="artworks"><path class="st12" d="M52.5,45.1H5.5v-4.7h43.8c1.7,0,3.1,1.4,3.1,3.1V45.1z"/><path class="st10" d="M42.4,40.7L42.4,40.7l-0.3-0.4H21.2l-2.4,3.1h14C36.1,43.4,39.5,42.5,42.4,40.7z"/><ellipse class="st6" cx="44" cy="30.6" rx="6.4" ry="6" transform="matrix(0.866 -0.5 0.5 0.866 -9.3962 26.0972)"/><path class="st13" d="M45.8,36.3c-0.1-0.2-0.2-0.5-0.3-0.7c-1.4-2.5-4.6-3.5-7.4-2.5c0.1,0.2,0.2,0.5,0.3,0.7   C39.9,36.3,43,37.3,45.8,36.3z"/><path class="st2" d="M49.6,27.4c-1.4-2.5-4.6-3.5-7.4-2.5c0.3,0.5,1.3,1.9,3.4,2.2v1.8l0.9,2.5c0,0-3.7,3.4-3.9,5.2   c1.4,0.2,3,0,4.4-0.8C50.1,34,51.2,30.2,49.6,27.4z"/><path class="st4" d="M42.2,24.9c0.3,0.5,1.3,1.9,3.4,2.2"/><path class="st3" d="M27.6,30.3c0,0,6.3-0.9,9.2,1.8c0.5,0.4,1,0.7,1.6,0.9l0.3,0.1c0.8,0.2,1.4,0.6,1.9,1.2l2.7,3.4l0,0   c-2.9,1.7-6.2,2.7-9.6,2.7h-14"/><path class="st6" d="M33.9,40.3h-6.4v-5.9h6.4c1.6,0,2.9,1.3,2.9,2.9v0C36.8,39,35.5,40.3,33.9,40.3z"/><path class="st4" d="M36.8,37.4c0,1.6-1.3,2.9-2.9,2.9h-6.4"/><path class="st4" d="M38.7,33.1c0.8,0.2,1.4,0.6,1.9,1.2l2.7,3.4"/><path class="st12" d="M51.8,32.6c1.8,2.4-0.4,4.6-3.4,6.7c-3,2.2-5.7,3.5-7.5,1.1c-1.8-2.4,1.2-3.4,4.2-5.6   C48.2,32.7,50.1,30.2,51.8,32.6z"/><path class="st12" d="M58.5,61h-53C4.1,61,3,59.9,3,58.5v0C3,57.1,4.1,56,5.5,56h53c1.4,0,2.5,1.1,2.5,2.5v0   C61,59.9,59.9,61,58.5,61z"/><path class="st2" d="M55.8,26.3h-0.8c-1.4,0-2.6,1.2-2.6,2.6v11.7c0,2.4-2,4.4-4.4,4.4H5.5V52h44.7c1.2,0,2.3,0.7,2.8,1.8l0.8,1.7   c0.1,0.3,0.4,0.5,0.8,0.5h3c0.5,0,0.9-0.4,0.9-0.9V52v-3v0v-3.9V28.9C58.5,27.5,57.3,26.3,55.8,26.3z"/><path class="st4" d="M40.3,39.1c-2.1,0.8-4.3,1.2-6.6,1.2h-14"/><path class="st0" d="M5.5,31.5v16.9h6.6c1.3,0,2.3-1,2.3-2.3v0c0-1.3,1-2.3,2.3-2.3h4.6c1.3,0,2.3,1,2.3,2.3v0c0,2.5,2,4.4,4.4,4.4   h0.4c2.1,0,3.7-1.7,3.7-3.7l0-11.7c0-3-2.1-5.7-5.1-6.3c-8.1-1.6-16.5-0.1-20,0.7C6.2,29.6,5.5,30.5,5.5,31.5z"/><g><g><g><ellipse class="st1" cx="8.8" cy="40.2" rx="1.6" ry="0.7" transform="matrix(0.7071 -0.7071 0.7071 0.7071 -25.8651 18.0202)"/><ellipse class="st1" cx="6.6" cy="42.4" rx="1.6" ry="0.7" transform="matrix(0.7071 -0.7071 0.7071 0.7071 -28.0401 17.1193)"/></g><g><ellipse class="st10" cx="6.6" cy="40.2" rx="0.7" ry="1.6" transform="matrix(0.7071 -0.7071 0.7071 0.7071 -26.5022 16.4823)"/><ellipse class="st10" cx="8.8" cy="42.4" rx="0.7" ry="1.6" transform="matrix(0.7071 -0.7071 0.7071 0.7071 -27.4031 18.6573)"/></g></g><g><g><ellipse class="st1" cx="13.3" cy="40.2" rx="1.6" ry="0.7" transform="matrix(0.7071 -0.7071 0.7071 0.7071 -24.554 21.1856)"/><ellipse class="st1" cx="11.1" cy="42.4" rx="1.6" ry="0.7" transform="matrix(0.7071 -0.7071 0.7071 0.7071 -26.729 20.2847)"/></g><g><ellipse class="st10" cx="11.1" cy="40.2" rx="0.7" ry="1.6" transform="matrix(0.7071 -0.7071 0.7071 0.7071 -25.1911 19.6476)"/><ellipse class="st10" cx="13.3" cy="42.4" rx="0.7" ry="1.6" transform="matrix(0.7071 -0.7071 0.7071 0.7071 -26.092 21.8226)"/></g></g><g><g><ellipse class="st1" cx="17.8" cy="40.2" rx="1.6" ry="0.7" transform="matrix(0.7071 -0.7071 0.7071 0.7071 -23.2429 24.3509)"/><ellipse class="st1" cx="15.6" cy="42.4" rx="1.6" ry="0.7" transform="matrix(0.7071 -0.7071 0.7071 0.7071 -25.4179 23.45)"/></g><g><ellipse class="st10" cx="15.6" cy="40.2" rx="0.7" ry="1.6" transform="matrix(0.7071 -0.7071 0.7071 0.7071 -23.8799 22.8129)"/><ellipse class="st10" cx="17.8" cy="42.4" rx="0.7" ry="1.6" transform="matrix(0.7071 -0.7071 0.7071 0.7071 -24.7808 24.9879)"/></g></g><g><g><ellipse class="st1" cx="22.2" cy="40.2" rx="1.6" ry="0.7" transform="matrix(0.7071 -0.7071 0.7071 0.7071 -21.9318 27.5162)"/><ellipse class="st1" cx="20.1" cy="42.4" rx="1.6" ry="0.7" transform="matrix(0.7071 -0.7071 0.7071 0.7071 -24.1068 26.6153)"/></g><g><ellipse class="st10" cx="20.1" cy="40.2" rx="0.7" ry="1.6" transform="matrix(0.7071 -0.7071 0.7071 0.7071 -22.5688 25.9783)"/><ellipse class="st10" cx="22.2" cy="42.4" rx="0.7" ry="1.6" transform="matrix(0.7071 -0.7071 0.7071 0.7071 -23.4697 28.1532)"/></g></g><g><g><ellipse class="st1" cx="26.7" cy="40.2" rx="1.6" ry="0.7" transform="matrix(0.7071 -0.7071 0.7071 0.7071 -20.6207 30.6815)"/><ellipse class="st1" cx="24.6" cy="42.4" rx="1.6" ry="0.7" transform="matrix(0.7071 -0.7071 0.7071 0.7071 -22.7956 29.7806)"/></g><g><ellipse class="st10" cx="24.6" cy="40.2" rx="0.7" ry="1.6" transform="matrix(0.7071 -0.7071 0.7071 0.7071 -21.2577 29.1436)"/><ellipse class="st10" cx="26.7" cy="42.4" rx="0.7" ry="1.6" transform="matrix(0.7071 -0.7071 0.7071 0.7071 -22.1586 31.3185)"/></g></g><g><g><ellipse class="st1" cx="31.2" cy="40.2" rx="1.6" ry="0.7" transform="matrix(0.7071 -0.7071 0.7071 0.7071 -19.3096 33.8468)"/><ellipse class="st1" cx="29" cy="42.4" rx="1.6" ry="0.7" transform="matrix(0.7071 -0.7071 0.7071 0.7071 -21.4845 32.9459)"/></g><g><ellipse class="st10" cx="29" cy="40.2" rx="0.7" ry="1.6" transform="matrix(0.7071 -0.7071 0.7071 0.7071 -19.9466 32.3089)"/><ellipse class="st10" cx="31.2" cy="42.4" rx="0.7" ry="1.6" transform="matrix(0.7071 -0.7071 0.7071 0.7071 -20.8475 34.4838)"/></g></g></g><g><g><g><ellipse class="st1" cx="8.8" cy="32.7" rx="1.6" ry="0.7" transform="matrix(0.7071 -0.7071 0.7071 0.7071 -20.5489 15.8182)"/><ellipse class="st1" cx="6.6" cy="34.9" rx="1.6" ry="0.7" transform="matrix(0.7071 -0.7071 0.7071 0.7071 -22.7239 14.9173)"/></g><g><ellipse class="st10" cx="6.6" cy="32.7" rx="0.7" ry="1.6" transform="matrix(0.7071 -0.7071 0.7071 0.7071 -21.1859 14.2802)"/><ellipse class="st10" cx="8.8" cy="34.9" rx="0.7" ry="1.6" transform="matrix(0.7071 -0.7071 0.7071 0.7071 -22.0868 16.4552)"/></g></g><g><g><ellipse class="st1" cx="13.3" cy="32.7" rx="1.6" ry="0.7" transform="matrix(0.7071 -0.7071 0.7071 0.7071 -19.2378 18.9835)"/><ellipse class="st1" cx="11.1" cy="34.9" rx="1.6" ry="0.7" transform="matrix(0.7071 -0.7071 0.7071 0.7071 -21.4128 18.0826)"/></g><g><ellipse class="st10" cx="11.1" cy="32.7" rx="0.7" ry="1.6" transform="matrix(0.7071 -0.7071 0.7071 0.7071 -19.8748 17.4456)"/><ellipse class="st10" cx="13.3" cy="34.9" rx="0.7" ry="1.6" transform="matrix(0.7071 -0.7071 0.7071 0.7071 -20.7757 19.6205)"/></g></g><g><g><ellipse class="st1" cx="17.8" cy="32.7" rx="1.6" ry="0.7" transform="matrix(0.7071 -0.7071 0.7071 0.7071 -17.9267 22.1488)"/><ellipse class="st1" cx="15.6" cy="34.9" rx="1.6" ry="0.7" transform="matrix(0.7071 -0.7071 0.7071 0.7071 -20.1016 21.2479)"/></g><g><ellipse class="st10" cx="15.6" cy="32.7" rx="0.7" ry="1.6" transform="matrix(0.7071 -0.7071 0.7071 0.7071 -18.5637 20.6109)"/><ellipse class="st10" cx="17.8" cy="34.9" rx="0.7" ry="1.6" transform="matrix(0.7071 -0.7071 0.7071 0.7071 -19.4646 22.7858)"/></g></g><g><g><ellipse class="st1" cx="22.2" cy="32.7" rx="1.6" ry="0.7" transform="matrix(0.7071 -0.7071 0.7071 0.7071 -16.6156 25.3141)"/><ellipse class="st1" cx="20.1" cy="34.9" rx="1.6" ry="0.7" transform="matrix(0.7071 -0.7071 0.7071 0.7071 -18.7905 24.4132)"/></g><g><ellipse class="st10" cx="20.1" cy="32.7" rx="0.7" ry="1.6" transform="matrix(0.7071 -0.7071 0.7071 0.7071 -17.2526 23.7762)"/><ellipse class="st10" cx="22.2" cy="34.9" rx="0.7" ry="1.6" transform="matrix(0.7071 -0.7071 0.7071 0.7071 -18.1535 25.9512)"/></g></g><g><g><ellipse class="st1" cx="26.7" cy="32.7" rx="1.6" ry="0.7" transform="matrix(0.7071 -0.7071 0.7071 0.7071 -15.3044 28.4794)"/><ellipse class="st1" cx="24.6" cy="34.9" rx="1.6" ry="0.7" transform="matrix(0.7071 -0.7071 0.7071 0.7071 -17.4794 27.5785)"/></g><g><ellipse class="st10" cx="24.6" cy="32.7" rx="0.7" ry="1.6" transform="matrix(0.7071 -0.7071 0.7071 0.7071 -15.9415 26.9415)"/><ellipse class="st10" cx="26.7" cy="34.9" rx="0.7" ry="1.6" transform="matrix(0.7071 -0.7071 0.7071 0.7071 -16.8424 29.1165)"/></g></g><g><g><path class="st1" d="M31.7,33.2c0.1-0.1,0.2-0.2,0.2-0.3c-0.1-0.4-0.3-0.8-0.5-1.2c-0.3,0.1-0.5,0.2-0.7,0.5      c-0.4,0.4-0.6,1-0.6,1.6C30.7,33.9,31.3,33.7,31.7,33.2z"/><ellipse class="st1" cx="29" cy="34.9" rx="1.6" ry="0.7" transform="matrix(0.7071 -0.7071 0.7071 0.7071 -16.1683 30.7439)"/></g><g><ellipse class="st10" cx="29" cy="32.7" rx="0.7" ry="1.6" transform="matrix(0.7071 -0.7071 0.7071 0.7071 -14.6304 30.1068)"/><ellipse class="st10" cx="31.2" cy="34.9" rx="0.7" ry="1.6" transform="matrix(0.7071 -0.7071 0.7071 0.7071 -15.5313 32.2818)"/></g></g></g><path class="st4" d="M5.5,48.4h6.6c1.3,0,2.3-1,2.3-2.3v0c0-1.3,1-2.3,2.3-2.3h4.6c1.3,0,2.3,1,2.3,2.3v0c0,2.5,2,4.4,4.4,4.4h0.4   c2.1,0,3.7-1.7,3.7-3.7l0-11.7c0-3-2.1-5.7-5.1-6.3"/><circle class="st6" cx="39.1" cy="27.8" r="1"/><path class="st4" d="M39,30.3c0.8-0.7,1.9-0.6,2.6,0.1"/><path class="st4" d="M42.6,27.5c-0.4,0.4-1.1,0.3-1.4-0.1"/><circle class="st6" cx="46.5" cy="29.9" r="1.6"/><path class="st0" d="M33.8,20.6l-1.5,2.2c-0.1,0.2-0.5,0.2-0.6,0l-1.5-2.2l1.8-1.8L33.8,20.6z"/><path class="st1" d="M30.2,20.6l0.8,1.3c0.5,0.2,1,0.4,1.6,0.5l1.2-1.7L32,18.8L30.2,20.6z"/><circle class="st0" cx="32" cy="12.5" r="9.5"/><path class="st15" d="M30,16.2l-0.4-0.4c-0.5-0.5-0.5-1.3,0-1.7l5.3-5.3c0.5-0.5,1.3-0.5,1.7,0L37,9.2c0.5,0.5,0.5,1.3,0,1.7   l-5.3,5.3C31.2,16.7,30.5,16.7,30,16.2z"/><path class="st15" d="M27.7,12.2l0.4-0.4c0.5-0.5,1.3-0.5,1.7,0l2.3,2.3c0.5,0.5,0.5,1.3,0,1.7l-0.4,0.4c-0.5,0.5-1.3,0.5-1.7,0   l-2.3-2.3C27.2,13.4,27.2,12.7,27.7,12.2z"/><g><path class="st4" d="M44.6,19.7c-0.9-0.9-0.9-2.4,0-3.3"/><path class="st4" d="M44.6,19.7c0.9,0.9,0.9,2.4,0,3.3"/></g><g><path class="st4" d="M47.4,19.7c-0.9-0.9-0.9-2.4,0-3.3"/><path class="st4" d="M47.4,19.7c0.9,0.9,0.9,2.4,0,3.3"/></g><g><path class="st4" d="M50.3,19.7c-0.9-0.9-0.9-2.4,0-3.3"/><path class="st4" d="M50.3,19.7c0.9,0.9,0.9,2.4,0,3.3"/></g></g></svg>